<?xml version="1.0" standalone="no"?>
<!DOCTYPE svg PUBLIC "-//W3C//DTD SVG 20010904//EN"
 "http://www.w3.org/TR/2001/REC-SVG-20010904/DTD/svg10.dtd">
<svg version="1.0" xmlns="http://www.w3.org/2000/svg"
 width="512.000000pt" height="512.000000pt" viewBox="0 0 512.000000 512.000000"
 preserveAspectRatio="xMidYMid meet">

<g transform="translate(0.000000,512.000000) scale(0.100000,-0.100000)"
fill="#000000" stroke="none">
<path d="M2242 4360 c-863 -57 -1261 -333 -1411 -979 -105 -448 -105 -1194 0
-1642 119 -510 398 -789 908 -908 448 -105 1194 -105 1642 0 510 119 789 398
908 908 105 446 105 1196 0 1642 -141 605 -490 877 -1239 964 -162 18 -622 27
-808 15z m1162 -1153 c21 -12 47 -38 57 -57 23 -42 25 -120 5 -158 -23 -42
-1067 -1080 -1099 -1092 -36 -13 -88 -13 -124 1 -32 12 -567 540 -589 581 -8
15 -14 51 -14 80 0 97 61 158 158 158 29 0 65 -6 80 -14 15 -8 117 -105 227
-215 l200 -201 455 454 c250 250 469 461 485 470 44 23 113 20 159 -7z"/>
</g>
</svg>
